<svg width="553" height="526" viewBox="0 0 553 526" fill="none" xmlns="http://www.w3.org/2000/svg">
<path d="M134.356 67.1329C134.356 104.209 104.299 134.266 67.2228 134.266C30.1463 134.266 0.0898483 104.209 0.0898467 67.1329C0.0898451 30.0564 30.1463 -1.31381e-06 67.2228 -2.93447e-06C104.299 -4.55514e-06 134.356 30.0564 134.356 67.1329Z" fill="#EB7522"/>
<path d="M176.273 67.1329C176.273 30.0564 206.329 -9.01502e-06 243.406 -1.06357e-05L485.085 -2.11998e-05C522.161 -2.28205e-05 552.217 30.0564 552.217 67.1329C552.217 104.209 522.161 134.266 485.085 134.266L243.406 134.266C206.329 134.266 176.273 104.209 176.273 67.1329Z" fill="#EB7522"/>
<path d="M176.273 262.965C176.273 225.888 206.329 195.832 243.406 195.832L378.982 195.832C416.058 195.832 446.115 225.888 446.115 262.965C446.115 300.041 416.058 330.098 378.982 330.098L243.406 330.098C206.329 330.098 176.273 300.041 176.273 262.965Z" fill="#F4A91C"/>
<path d="M176.273 458.796C176.273 421.72 206.329 391.663 243.406 391.663L304.317 391.663C341.393 391.663 371.45 421.72 371.45 458.796C371.45 495.873 341.393 525.929 304.317 525.929L243.406 525.929C206.329 525.929 176.273 495.873 176.273 458.796Z" fill="#F7B728"/>
</svg>
